<svg xmlns="http://www.w3.org/2000/svg" xml:space="preserve" width="512" height="512" version="1.1" viewBox="0 0 512 512">
  <path fill="#111" d="M256 428c96 0 96 0 208-4 8-1 11-4 12-12 2-28 2-28 3-72l1-28v-56H32v56l1 28c1 44 1 44 3 72 1 8 4 11 12 12 112 4 112 4 208 4z"/>
  <path fill="#cb3c33" d="M354 314h-34V85h33l64 1 59 14v213h-58z"/>
  <path fill="#389826" d="M289 314h31V85l-32-1h-64l-32 1v229h31z"/>
  <path fill="#cc5" d="M158 314h34V85h-33l-64 1-59 14v213h58z"/>
  <path fill="#222" d="M417 425c1-41 1-41 1-84h-21c0 43 0 43-1 85 8 0 20 0 21-1z"/>
  <path fill="#000" d="M375 427c1-43 1-43 1-85h-22v85c1 1 18 0 21 0z"/>
  <path fill="#325" d="M256 428h-75c-1-44-1-44-1-86h76"/>
  <path fill="#eee" d="M180 342c0 42 0 42 1 86-21 0-21 0-75-2l-2-85c40 1 40 1 76 1z"/>
  <path fill="#025" d="M104 341c1 43 1 43 2 85l-58-2c-8-1-11-4-12-12-2-28-2-28-3-72z"/>
  <path fill="#4063d8" d="M94 341v-28l-62-1 1 28c31 1 31 1 61 1zM418 313c0-57 0-58-1-227 39 1 39 1 47 2s11 4 12 12c4 60 4 92 4 156v56z"/>
  <path fill="#ccc" d="M94 313c0-57 0-58 1-227-39 1-39 1-47 2s-11 4-12 12c-4 60-4 92-4 156v56zM418 341v-28l62-1-1 28c-31 1-31 1-61 1z"/>
  <path fill="#9558b2" d="M223 342v-28h-65v28zM354 314h-65c0-58 0-58-1-230l65 1c1 171 1 171 1 229"/>
  <path fill="#9bb" d="M289 342v-28h65v28zm-131-28h65c0-58 0-58 1-230l-65 1c-1 171-1 171-1 229"/>
</svg>